<svg height="480pt" viewBox="0 -84 480.00001 480" width="480pt" xmlns="http://www.w3.org/2000/svg"><path d="m368 0h-160.160156c-35.15625-.078125-69.515625 10.449219-98.59375 30.207031-6.335938-4.066406-13.714844-6.222656-21.246094-6.207031h-64c-3.445312 0-6.5 2.203125-7.589844 5.46875-1.089844 3.269531.035156 6.867188 2.789063 8.933594l45.976562 34.535156c-5.566406 7.703125-10.488281 15.855469-14.71875 24.367188l-23.394531 46.695312h-19.0625c-4.417969 0-8 3.582031-8 8v32c.0273438 22.082031 17.917969 39.972656 40 40h80v22.402344l-23.351562 54.484375c-1.042969 2.46875-.78125 5.292969.699218 7.527343 1.476563 2.234376 3.972656 3.582032 6.652344 3.585938h40c2.582031 0 5.003906-1.25 6.503906-3.351562l40-56c.972656-1.355469 1.496094-2.980469 1.496094-4.648438v-12.6875l22.839844 22.847656-14.398438 43.3125c-.8125 2.433594-.40625 5.109375 1.089844 7.195313 1.496094 2.082031 3.902344 3.324219 6.46875 3.332031h32c3.046875.015625 5.839844-1.699219 7.199219-4.421875l24-48c1.222656-2.449219 1.109375-5.351563-.304688-7.699219l-16.765625-27.878906h23.304688l49.855468 35.609375-7.199218 43.070313c-.390625 2.324218.265625 4.703124 1.789062 6.5 1.527344 1.792968 3.765625 2.828124 6.121094 2.820312h32c3.574219.003906 6.714844-2.363281 7.695312-5.800781l16-56c.6875-2.40625.207032-4.996094-1.296874-7l-14.398438-19.199219c2.398438 0 4.742188-.113281 6.878906-.261719l33.121094 20.703125v59.558594c0 4.417969 3.582031 8 8 8h32c3.335938.003906 6.324219-2.066406 7.496094-5.191406l24-64c.335937-.898438.503906-1.847656.503906-2.808594v-128c-.066406-61.828125-50.171875-111.9335938-112-112zm-113.121094 256.351562-19.824218 39.648438h-15.949219l12.480469-37.472656c.957031-2.871094.210937-6.039063-1.929688-8.183594l-26.34375-26.34375h32.160156zm112.320313-6.75-13.230469 46.398438h-16.519531l6.398437-38.679688c.515625-3.007812-.726562-6.046874-3.199218-7.832031l-35.6875-25.488281h43.039062zm75.257812 46.398438h-18.457031v-56c0-2.757812-1.421875-5.320312-3.761719-6.785156l-32-20-28.238281-17.644532v-27.570312h-16v32c0 2.757812 1.421875 5.324219 3.761719 6.785156l1.941406 1.214844h-143.40625l16.800781-13.824219c1.84375-1.519531 2.910156-3.785156 2.910156-6.175781v-20h-16v16.222656l-31.085937 25.601563.046875.054687c-1.027344.808594-1.832031 1.859375-2.351562 3.058594-.378907.976562-.5625 2.015625-.539063 3.0625h-.078125v29.441406l-36.121094 50.558594h-23.742187l19.199219-44.847656c.433593-.992188.660156-2.066406.664062-3.152344v-32c0-4.417969-3.582031-8-8-8h-88c-13.253906 0-24-10.746094-24-24v-24h16c3.03125.003906 5.800781-1.707031 7.160156-4.414062l25.601563-51.152344c4.957031-9.96875 10.953125-19.386719 17.886719-28.097656 1.339843-1.691407 1.945312-3.851563 1.667968-5.992188-.273437-2.140625-1.398437-4.078125-3.125-5.375l-33.191406-24.96875h40c5.851562.035156 11.492188 2.203125 15.855469 6.105469 2.8125 2.453125 6.949219 2.636719 9.96875.4375 27.292969-19.917969 60.226562-30.617188 94.015625-30.542969h160.160156c51.625.082031 93.949219 40.960938 95.824219 92.550781l-1.449219 1.28125c-23.371094 20.804688-59.03125 19.320313-80.589844-3.359375-3.054687-3.195312-8.117187-3.308594-11.3125-.257812-3.195312 3.054687-3.308594 8.121094-.257812 11.3125 24.503906 25.828125 63.960937 30.464844 93.785156 11.023437v110zm0 0"/><path d="m116 128c0 6.628906-5.371094 12-12 12s-12-5.371094-12-12 5.371094-12 12-12 12 5.371094 12 12zm0 0"/></svg>