<?xml version="1.0" encoding="iso-8859-1"?>
<!-- Generator: Adobe Illustrator 19.0.0, SVG Export Plug-In . SVG Version: 6.00 Build 0)  -->
<svg version="1.1" id="Capa_1" xmlns="http://www.w3.org/2000/svg" xmlns:xlink="http://www.w3.org/1999/xlink" x="0px" y="0px"
	 viewBox="0 0 470 470" style="enable-background:new 0 0 470 470;" xml:space="preserve">
<g>
	<path d="M100.824,311.016c-2.926,2.926-2.926,7.686,0,10.612c2.926,2.926,7.686,2.926,10.612,0c2.926-2.926,2.926-7.686,0-10.612
		C108.51,308.09,103.75,308.09,100.824,311.016z"/>
	<path d="M70.3,341.54c-2.926,2.926-2.926,7.686,0,10.612c2.926,2.926,7.686,2.926,10.612,0c2.926-2.926,2.926-7.686,0-10.612
		C77.986,338.614,73.226,338.614,70.3,341.54z"/>
	<path d="M467.803,141.23L354.853,28.28c-2.929-2.929-7.678-2.929-10.606,0L11.043,361.483C3.922,368.604,0,378.104,0,388.232
		s3.922,19.628,11.043,26.75l17.872,17.872c7.375,7.375,17.063,11.062,26.75,11.062c9.688,0,19.375-3.687,26.75-11.062
		l14.297-14.298c1.407-1.407,2.197-3.314,2.197-5.303c0-1.989-0.79-3.897-2.197-5.303c-4.312-4.312-6.687-10.045-6.687-16.143
		c0-6.098,2.375-11.831,6.687-16.143l34.383-34.383c2.929-2.929,2.929-7.678,0-10.606c-2.929-2.929-7.678-2.929-10.606,0
		l-34.383,34.383c-7.145,7.145-11.08,16.645-11.08,26.749c0,7.557,2.201,14.776,6.299,20.924l-9.517,9.517
		c-8.901,8.901-23.385,8.901-32.286,0L21.65,404.376c-4.288-4.289-6.65-10.021-6.65-16.144c0-6.122,2.362-11.854,6.65-16.143
		l86.272-86.272l107.647,107.647c2.661,2.661,6.882,2.938,9.866,0.649c45.421-34.823,88.989-73.018,129.492-113.524
		c40.507-40.503,78.702-84.071,113.524-129.492C470.741,148.111,470.464,143.891,467.803,141.23z M344.321,269.982
		c-38.491,38.495-79.78,74.876-122.806,108.215L118.529,275.211L349.55,44.19l102.986,102.986
		C419.197,190.202,382.816,231.491,344.321,269.982z"/>
	<path d="M197.511,321.229c-3.228,2.596-3.74,7.317-1.145,10.545c1.482,1.842,3.656,2.8,5.85,2.8c1.649,0,3.31-0.542,4.695-1.656
		c36.724-29.533,72.25-61.414,105.59-94.756c33.346-33.344,65.227-68.87,94.756-105.591c2.596-3.228,2.083-7.949-1.145-10.545
		c-3.229-2.597-7.95-2.083-10.545,1.145c-29.192,36.302-60.708,71.422-93.674,104.384
		C268.935,260.518,233.815,292.034,197.511,321.229z"/>
</g>
<g>
</g>
<g>
</g>
<g>
</g>
<g>
</g>
<g>
</g>
<g>
</g>
<g>
</g>
<g>
</g>
<g>
</g>
<g>
</g>
<g>
</g>
<g>
</g>
<g>
</g>
<g>
</g>
<g>
</g>
</svg>
